<mxfile host="app.diagrams.net" modified="2021-02-13T09:58:30.327Z" agent="5.0 (Macintosh; Intel Mac OS X 11_1_0) AppleWebKit/537.36 (KHTML, like Gecko) Chrome/88.0.4324.150 Safari/537.36" etag="fkypswyqZax4-jHUCSfP" version="14.3.0" type="github">
  <diagram id="3TO2q5QgPzHr-vitfEo1" name="Page-1">
    <mxGraphModel dx="946" dy="621" grid="1" gridSize="10" guides="1" tooltips="1" connect="1" arrows="1" fold="1" page="1" pageScale="1" pageWidth="850" pageHeight="1100" math="0" shadow="0">
      <root>
        <mxCell id="0" />
        <mxCell id="1" parent="0" />
        <mxCell id="GLCllgMDW6Mr1fmC26EX-1" value="admin" style="shape=umlActor;verticalLabelPosition=bottom;verticalAlign=top;html=1;outlineConnect=0;" vertex="1" parent="1">
          <mxGeometry x="110" y="220" width="30" height="60" as="geometry" />
        </mxCell>
        <mxCell id="GLCllgMDW6Mr1fmC26EX-2" value="Login" style="ellipse;whiteSpace=wrap;html=1;" vertex="1" parent="1">
          <mxGeometry x="200" y="220" width="100" height="50" as="geometry" />
        </mxCell>
        <mxCell id="GLCllgMDW6Mr1fmC26EX-3" value="Invoice" style="ellipse;whiteSpace=wrap;html=1;" vertex="1" parent="1">
          <mxGeometry x="325" y="260" width="100" height="50" as="geometry" />
        </mxCell>
        <mxCell id="GLCllgMDW6Mr1fmC26EX-4" value="Data Barang" style="ellipse;whiteSpace=wrap;html=1;" vertex="1" parent="1">
          <mxGeometry x="325" y="160" width="100" height="50" as="geometry" />
        </mxCell>
        <mxCell id="GLCllgMDW6Mr1fmC26EX-5" value="Hapus Barang" style="ellipse;whiteSpace=wrap;html=1;" vertex="1" parent="1">
          <mxGeometry x="460" y="200" width="100" height="50" as="geometry" />
        </mxCell>
        <mxCell id="GLCllgMDW6Mr1fmC26EX-6" value="Edit Barang" style="ellipse;whiteSpace=wrap;html=1;" vertex="1" parent="1">
          <mxGeometry x="460" y="140" width="100" height="50" as="geometry" />
        </mxCell>
        <mxCell id="GLCllgMDW6Mr1fmC26EX-7" value="Tambah Barang" style="ellipse;whiteSpace=wrap;html=1;" vertex="1" parent="1">
          <mxGeometry x="460" y="80" width="100" height="50" as="geometry" />
        </mxCell>
        <mxCell id="GLCllgMDW6Mr1fmC26EX-9" value="" style="endArrow=none;html=1;entryX=0;entryY=0.5;entryDx=0;entryDy=0;" edge="1" parent="1" source="GLCllgMDW6Mr1fmC26EX-1" target="GLCllgMDW6Mr1fmC26EX-2">
          <mxGeometry width="50" height="50" relative="1" as="geometry">
            <mxPoint x="400" y="320" as="sourcePoint" />
            <mxPoint x="450" y="270" as="targetPoint" />
          </mxGeometry>
        </mxCell>
        <mxCell id="GLCllgMDW6Mr1fmC26EX-10" value="" style="endArrow=none;html=1;entryX=1;entryY=0.5;entryDx=0;entryDy=0;exitX=0;exitY=0.5;exitDx=0;exitDy=0;" edge="1" parent="1" source="GLCllgMDW6Mr1fmC26EX-4" target="GLCllgMDW6Mr1fmC26EX-2">
          <mxGeometry width="50" height="50" relative="1" as="geometry">
            <mxPoint x="150" y="251" as="sourcePoint" />
            <mxPoint x="210" y="255" as="targetPoint" />
          </mxGeometry>
        </mxCell>
        <mxCell id="GLCllgMDW6Mr1fmC26EX-11" value="" style="endArrow=none;html=1;entryX=0;entryY=0.5;entryDx=0;entryDy=0;exitX=1;exitY=0.5;exitDx=0;exitDy=0;" edge="1" parent="1" source="GLCllgMDW6Mr1fmC26EX-4" target="GLCllgMDW6Mr1fmC26EX-7">
          <mxGeometry width="50" height="50" relative="1" as="geometry">
            <mxPoint x="335" y="195" as="sourcePoint" />
            <mxPoint x="310" y="255" as="targetPoint" />
          </mxGeometry>
        </mxCell>
        <mxCell id="GLCllgMDW6Mr1fmC26EX-12" value="" style="endArrow=none;html=1;entryX=0;entryY=0.5;entryDx=0;entryDy=0;exitX=1;exitY=0.5;exitDx=0;exitDy=0;" edge="1" parent="1" source="GLCllgMDW6Mr1fmC26EX-4" target="GLCllgMDW6Mr1fmC26EX-6">
          <mxGeometry width="50" height="50" relative="1" as="geometry">
            <mxPoint x="430" y="180" as="sourcePoint" />
            <mxPoint x="470" y="115" as="targetPoint" />
          </mxGeometry>
        </mxCell>
        <mxCell id="GLCllgMDW6Mr1fmC26EX-13" value="" style="endArrow=none;html=1;entryX=0;entryY=0.5;entryDx=0;entryDy=0;exitX=0.97;exitY=0.64;exitDx=0;exitDy=0;exitPerimeter=0;" edge="1" parent="1" source="GLCllgMDW6Mr1fmC26EX-4" target="GLCllgMDW6Mr1fmC26EX-5">
          <mxGeometry width="50" height="50" relative="1" as="geometry">
            <mxPoint x="445" y="205" as="sourcePoint" />
            <mxPoint x="480" y="125" as="targetPoint" />
          </mxGeometry>
        </mxCell>
        <mxCell id="GLCllgMDW6Mr1fmC26EX-14" value="" style="endArrow=none;html=1;entryX=1;entryY=0.5;entryDx=0;entryDy=0;exitX=0;exitY=0.5;exitDx=0;exitDy=0;" edge="1" parent="1" source="GLCllgMDW6Mr1fmC26EX-3" target="GLCllgMDW6Mr1fmC26EX-2">
          <mxGeometry width="50" height="50" relative="1" as="geometry">
            <mxPoint x="335" y="195" as="sourcePoint" />
            <mxPoint x="310" y="255" as="targetPoint" />
          </mxGeometry>
        </mxCell>
        <mxCell id="GLCllgMDW6Mr1fmC26EX-16" value="detail Invoice" style="ellipse;whiteSpace=wrap;html=1;" vertex="1" parent="1">
          <mxGeometry x="460" y="270" width="100" height="50" as="geometry" />
        </mxCell>
        <mxCell id="GLCllgMDW6Mr1fmC26EX-17" value="" style="endArrow=none;html=1;entryX=1;entryY=0.5;entryDx=0;entryDy=0;" edge="1" parent="1" source="GLCllgMDW6Mr1fmC26EX-16" target="GLCllgMDW6Mr1fmC26EX-3">
          <mxGeometry width="50" height="50" relative="1" as="geometry">
            <mxPoint x="335" y="195" as="sourcePoint" />
            <mxPoint x="310" y="255" as="targetPoint" />
          </mxGeometry>
        </mxCell>
        <mxCell id="GLCllgMDW6Mr1fmC26EX-23" value="user" style="shape=umlActor;verticalLabelPosition=bottom;verticalAlign=top;html=1;outlineConnect=0;" vertex="1" parent="1">
          <mxGeometry x="110" y="370" width="30" height="60" as="geometry" />
        </mxCell>
        <mxCell id="GLCllgMDW6Mr1fmC26EX-29" value="Register" style="ellipse;whiteSpace=wrap;html=1;" vertex="1" parent="1">
          <mxGeometry x="240" y="350" width="100" height="50" as="geometry" />
        </mxCell>
        <mxCell id="GLCllgMDW6Mr1fmC26EX-30" value="login" style="ellipse;whiteSpace=wrap;html=1;" vertex="1" parent="1">
          <mxGeometry x="240" y="420" width="90" height="50" as="geometry" />
        </mxCell>
        <mxCell id="GLCllgMDW6Mr1fmC26EX-31" value="&lt;span&gt;pilih produk&lt;/span&gt;" style="ellipse;whiteSpace=wrap;html=1;" vertex="1" parent="1">
          <mxGeometry x="240" y="490" width="100" height="50" as="geometry" />
        </mxCell>
        <mxCell id="GLCllgMDW6Mr1fmC26EX-32" value="&lt;span&gt;transaksi&lt;/span&gt;" style="ellipse;whiteSpace=wrap;html=1;" vertex="1" parent="1">
          <mxGeometry x="375" y="490" width="100" height="50" as="geometry" />
        </mxCell>
        <mxCell id="GLCllgMDW6Mr1fmC26EX-33" value="" style="endArrow=none;html=1;entryX=0;entryY=0.5;entryDx=0;entryDy=0;" edge="1" parent="1" target="GLCllgMDW6Mr1fmC26EX-29">
          <mxGeometry width="50" height="50" relative="1" as="geometry">
            <mxPoint x="150" y="400" as="sourcePoint" />
            <mxPoint x="180" y="370" as="targetPoint" />
          </mxGeometry>
        </mxCell>
        <mxCell id="GLCllgMDW6Mr1fmC26EX-34" value="" style="endArrow=none;html=1;" edge="1" parent="1" source="GLCllgMDW6Mr1fmC26EX-23" target="GLCllgMDW6Mr1fmC26EX-30">
          <mxGeometry width="50" height="50" relative="1" as="geometry">
            <mxPoint x="140" y="430" as="sourcePoint" />
            <mxPoint x="250" y="385" as="targetPoint" />
          </mxGeometry>
        </mxCell>
        <mxCell id="GLCllgMDW6Mr1fmC26EX-35" value="" style="endArrow=none;html=1;entryX=0.03;entryY=0.64;entryDx=0;entryDy=0;entryPerimeter=0;" edge="1" parent="1" source="GLCllgMDW6Mr1fmC26EX-23" target="GLCllgMDW6Mr1fmC26EX-31">
          <mxGeometry width="50" height="50" relative="1" as="geometry">
            <mxPoint x="150" y="440" as="sourcePoint" />
            <mxPoint x="260" y="395" as="targetPoint" />
          </mxGeometry>
        </mxCell>
        <mxCell id="GLCllgMDW6Mr1fmC26EX-37" value="" style="endArrow=none;html=1;exitX=1;exitY=0.5;exitDx=0;exitDy=0;" edge="1" parent="1" source="GLCllgMDW6Mr1fmC26EX-31">
          <mxGeometry width="50" height="50" relative="1" as="geometry">
            <mxPoint x="150" y="259" as="sourcePoint" />
            <mxPoint x="370" y="515" as="targetPoint" />
          </mxGeometry>
        </mxCell>
      </root>
    </mxGraphModel>
  </diagram>
</mxfile>
